<?xml version="1.0" encoding="UTF-8"?>
<svg width="1549px" height="448px" viewBox="0 0 1549 448" version="1.1" xmlns="http://www.w3.org/2000/svg" xmlns:xlink="http://www.w3.org/1999/xlink">
    <!-- Generator: Sketch 61.1 (89650) - https://sketch.com -->
    <title>logo-w</title>
    <desc>Created with Sketch.</desc>
    <g id="makers" stroke="none" stroke-width="1" fill="none" fill-rule="evenodd">
        <g id="logo-w" fill="#000000">
            <path d="M1549,0 L1549,448 L1312.98943,448 L1312.98943,0 L1549,0 Z M512.4801,144.997849 C523.718754,144.997849 534.876966,145.800709 545.955068,147.406452 C557.033171,149.012194 567.067534,152.303918 576.058458,157.28172 C585.049382,162.259523 592.274123,169.244399 597.732898,178.236559 C603.191673,187.228719 605.92102,198.950465 605.92102,213.402151 L605.92102,341.539785 C605.92102,351.174242 606.482944,358.239404 607.60681,362.735484 C608.730675,367.231564 612.503596,369.47957 618.925684,369.47957 C622.457833,369.47957 626.632128,368.676711 631.448694,367.070968 L631.448694,398.864516 C624.384397,403.039447 614.590859,405.126882 602.067786,405.126882 C591.47134,405.126882 583.042475,402.156302 576.780939,396.215054 C570.519403,390.273805 567.388682,380.559207 567.388682,367.070968 C556.150027,380.559207 543.065218,390.273805 528.133862,396.215054 C513.202506,402.156302 497.067251,405.126882 479.727612,405.126882 C468.488957,405.126882 457.812395,403.842307 447.697606,401.273118 C437.582816,398.70393 428.832852,394.689633 421.44745,389.230108 C414.062048,383.770582 408.201981,376.625134 403.867071,367.793548 C399.532161,358.961963 397.364739,348.283934 397.364739,335.75914 C397.364739,321.628603 399.772986,310.067428 404.589552,301.075269 C409.406119,292.083109 415.747836,284.777089 423.614894,279.156989 C431.481953,273.536889 440.472742,269.281735 450.587531,266.391398 C460.70232,263.501061 471.057783,261.092483 481.654229,259.165591 C492.892884,256.917551 503.569446,255.231547 513.684235,254.107527 C523.799024,252.983507 532.709539,251.377788 540.416045,249.290323 C548.122551,247.202857 554.223444,244.151991 558.718905,240.137634 C563.214367,236.123277 565.462065,230.262404 565.462065,222.554839 C565.462065,213.562679 563.776292,206.336945 560.404695,200.877419 C557.033099,195.417894 552.698254,191.243025 547.400031,188.352688 C542.101808,185.462351 536.161465,183.535489 529.578825,182.572043 C522.996184,181.608597 516.493917,181.126882 510.071828,181.126882 C492.732189,181.126882 478.282707,184.418605 466.722948,191.002151 C455.163188,197.585696 448.901746,210.030016 447.938433,228.335484 L406.997823,228.335484 C407.640032,212.920353 410.851028,199.914031 416.630908,189.316129 C422.410788,178.718227 430.117178,170.127631 439.750311,163.544086 C449.383444,156.960541 460.381105,152.22367 472.743626,149.333333 C485.106146,146.442996 498.351505,144.997849 512.4801,144.997849 Z M1023.03358,144.997849 C1045.18979,144.997849 1063.57274,149.574148 1078.18299,158.726882 C1092.79324,167.879616 1104.51338,179.521076 1113.34375,193.651613 C1122.17412,207.78215 1128.27501,223.197049 1131.64661,239.896774 C1135.01821,256.596499 1136.38288,272.493114 1135.74067,287.587097 L949.340485,287.587097 C949.019381,298.506148 950.303779,308.863033 953.193719,318.658065 C956.083659,328.453096 960.739603,337.123977 967.161692,344.670968 C973.58378,352.217959 981.77182,358.239404 991.726057,362.735484 C1001.68029,367.231564 1013.40043,369.47957 1026.88682,369.47957 C1044.22645,369.47957 1058.43511,365.465273 1069.51322,357.436559 C1080.59132,349.407845 1087.89633,337.204383 1091.42848,320.825806 L1131.88744,320.825806 C1126.42866,348.765731 1114.38743,369.800646 1095.76337,383.931183 C1077.13931,398.061719 1053.69904,405.126882 1025.44185,405.126882 C1005.53338,405.126882 988.274275,401.915444 973.664024,395.492473 C959.053772,389.069502 946.771712,380.077477 936.817475,368.516129 C926.863238,356.954781 919.397672,343.1456 914.420553,327.088172 C909.443435,311.030744 906.633813,293.52841 905.991604,274.580645 C905.991604,255.63288 908.881501,238.291118 914.661381,222.554839 C920.44126,206.818559 928.549025,193.16995 938.984919,181.608602 C949.420813,170.047254 961.783148,161.055229 976.072295,154.632258 C990.361442,148.209287 1006.01505,144.997849 1023.03358,144.997849 Z M1420.87998,144.997849 C1409.96242,144.997849 1398.96476,146.36271 1387.88666,149.092473 C1376.80856,151.822236 1366.85447,155.997105 1358.0241,161.617204 C1349.19373,167.237304 1341.96899,174.543324 1336.34966,183.535484 C1330.73033,192.527644 1327.92071,203.285959 1327.92071,215.810753 C1327.92071,231.868181 1331.93445,244.392787 1339.96206,253.384946 C1347.98968,262.377106 1358.02404,269.361982 1370.06545,274.339785 C1382.10687,279.317588 1395.19168,283.171313 1409.32027,285.901075 C1423.44887,288.630838 1436.53368,291.681704 1448.57509,295.053763 C1460.61651,298.425823 1470.65087,302.84155 1478.67848,308.301075 C1486.70609,313.760601 1490.71984,321.789194 1490.71984,332.387097 C1490.71984,340.094662 1488.79324,346.437251 1484.93999,351.415054 C1481.08673,356.392856 1476.18997,360.166295 1470.24953,362.735484 C1464.3091,365.304672 1457.80683,367.070963 1450.74254,368.034409 C1443.67824,368.997849 1436.93515,369.47957 1430.51306,369.47957 C1422.16434,369.47957 1414.05658,368.676711 1406.18952,367.070968 C1398.32246,365.465225 1391.25827,362.815789 1384.99674,359.122581 C1378.7352,355.429372 1373.67788,350.451644 1369.82463,344.189247 C1365.97137,337.92685 1363.88423,330.299687 1363.56312,321.307527 L1363.56312,321.307527 L1322.62251,321.307527 C1323.26472,336.722658 1326.47572,349.809265 1332.2556,360.567742 C1338.03548,371.326219 1345.74187,379.9971 1355.375,386.580645 C1365.00813,393.164191 1376.08607,397.901061 1388.60914,400.791398 C1401.13221,403.681735 1414.2973,405.126882 1428.10479,405.126882 C1440.62786,405.126882 1453.23102,403.922593 1465.91465,401.513978 C1478.59827,399.105364 1489.99731,394.85021 1500.1121,388.748387 C1510.22689,382.646564 1518.41493,374.617971 1524.67646,364.662366 C1530.938,354.70676 1534.06872,342.182154 1534.06872,327.088172 C1534.06872,315.205675 1531.74075,305.250219 1527.08473,297.221505 C1522.42872,289.192791 1516.32783,282.529059 1508.78187,277.230108 C1501.23592,271.931156 1492.56623,267.676002 1482.77254,264.464516 C1472.97886,261.253031 1462.9445,258.523309 1452.66915,256.275269 C1443.03602,254.027229 1433.40303,251.859509 1423.7699,249.772043 C1414.13677,247.684577 1405.46708,245.115427 1397.76057,242.064516 C1390.05407,239.013605 1383.71235,235.15988 1378.73523,230.503226 C1373.75811,225.846572 1371.26959,219.985698 1371.26959,212.92043 C1371.26959,206.497459 1372.87509,201.278873 1376.08613,197.264516 C1379.29718,193.250159 1383.47147,190.038722 1388.60914,187.630108 C1393.74681,185.221493 1399.44633,183.535489 1405.70787,182.572043 C1411.9694,181.608597 1418.15057,181.126882 1424.25155,181.126882 C1430.99475,181.126882 1437.65756,181.849455 1444.24021,183.294624 C1450.82285,184.739792 1456.84346,187.068084 1462.30224,190.27957 C1467.76101,193.491055 1472.25641,197.74621 1475.78856,203.045161 C1479.32071,208.344113 1481.40785,215.007845 1482.05006,223.036559 L1482.05006,223.036559 L1522.99067,223.036559 C1522.02736,207.942577 1518.81636,195.337685 1513.35759,185.221505 C1507.89881,175.105326 1500.5938,167.076732 1491.44232,161.135484 C1482.29084,155.194236 1471.77483,151.019367 1459.89397,148.610753 C1448.0131,146.202138 1435.00857,144.997849 1420.87998,144.997849 Z M266.354789,144.997849 C278.877861,144.997849 290.196622,146.36271 300.311412,149.092473 C310.426201,151.822236 319.09589,156.07739 326.32074,161.858065 C333.54559,167.638739 339.164833,175.105331 343.178638,184.258065 C347.192443,193.410798 349.199316,204.409972 349.199316,217.255914 L349.199316,399.827957 L308.258706,399.827957 L308.258706,236.524731 C308.258706,228.817166 307.616507,221.591432 306.33209,214.847312 C305.047672,208.103192 302.639425,202.242319 299.107276,197.264516 C295.575127,192.286713 290.678358,188.352703 284.416822,185.462366 C278.155286,182.572029 270.047521,181.126882 260.093284,181.126882 C239.863705,181.126882 223.969274,186.907469 212.409515,198.468817 C200.849756,210.030165 195.069963,225.445065 195.069963,244.713978 L195.069963,399.827957 L154.129353,399.827957 L154.129353,236.524731 C154.129353,228.496017 153.406879,221.109711 151.961909,214.365591 C150.516939,207.621472 148.028417,201.760598 144.496269,196.782796 C140.96412,191.804993 136.227901,187.951268 130.287469,185.221505 C124.347037,182.491743 116.720921,181.126882 107.408893,181.126882 C95.5280293,181.126882 85.3331168,183.53546 76.8238495,188.352688 C68.3145822,193.169917 61.4109407,198.950504 56.1127177,205.694624 C50.8144947,212.438743 46.9612994,219.42362 44.5530162,226.649462 C42.144733,233.875305 40.9406095,239.89675 40.9406095,244.713978 L40.9406095,399.827957 L0,399.827957 L0,150.778495 L38.5323383,150.778495 L38.5323383,187.389247 L39.4956468,187.389247 C58.1197034,159.128174 84.9315207,144.997849 119.931903,144.997849 C135.344915,144.997849 149.312748,148.209287 161.835821,154.632258 C174.358893,161.055229 183.189133,171.974116 188.326803,187.389247 C196.675519,173.901008 207.67318,163.463836 221.320118,156.077419 C234.967056,148.691002 249.978463,144.997849 266.354789,144.997849 Z M712.848259,55.8795699 L712.848259,259.647312 L826.518657,150.778495 L881.427239,150.778495 L782.688122,241.341935 L888.652052,399.827957 L836.633396,399.827957 L751.380597,269.763441 L712.848259,305.410753 L712.848259,399.827957 L671.907649,399.827957 L671.907649,55.8795699 L712.848259,55.8795699 Z M1307.69123,144.997849 L1307.69123,188.352688 C1291.31491,188.352688 1277.34707,190.600694 1265.78731,195.096774 C1254.22755,199.592854 1244.91567,206.176301 1237.85137,214.847312 C1230.78707,223.518323 1225.64948,234.03578 1222.43843,246.4 C1219.22739,258.76422 1217.62189,272.97483 1217.62189,289.032258 L1217.62189,399.827957 L1176.68128,399.827957 L1176.68128,150.778495 L1215.21362,150.778495 L1215.21362,203.286022 L1216.17693,203.286022 C1226.13117,183.053662 1238.33295,168.120478 1252.78265,158.486022 C1267.23235,148.851565 1285.53503,144.355552 1307.69123,144.997849 Z M564.98041,271.208602 C559.84274,275.062385 553.099648,277.872393 544.750933,279.63871 C536.402218,281.405027 527.652253,282.850174 518.500777,283.974194 C509.349301,285.098214 500.117688,286.382788 490.805659,287.827957 C481.493631,289.273126 473.145041,291.601418 465.759639,294.812903 C458.374238,298.024389 452.35362,302.600687 447.697606,308.541935 C443.041592,314.483184 440.713619,322.592063 440.713619,332.868817 C440.713619,339.612937 442.078293,345.313238 444.80768,349.969892 C447.537068,354.626547 451.069164,358.399986 455.404073,361.290323 C459.738983,364.18066 464.796302,366.268094 470.576182,367.552688 C476.356061,368.837282 482.456954,369.47957 488.879042,369.47957 C502.365428,369.47957 513.925014,367.632993 523.558147,363.939785 C533.19128,360.246577 541.05822,355.589992 547.159204,349.969892 C553.260188,344.349793 557.755583,338.248062 560.645522,331.664516 C563.535462,325.080971 564.98041,318.898954 564.98041,313.11828 L564.98041,271.208602 Z M1020.62531,181.126882 C1010.02886,181.126882 1000.47615,182.973458 991.966884,186.666667 C983.457617,190.359875 976.152601,195.417889 970.051617,201.84086 C963.950633,208.263831 959.134139,215.730423 955.60199,224.24086 C952.069841,232.751297 949.982694,241.823608 949.340485,251.458065 L1092.39179,251.458065 C1091.74958,241.823608 1089.58216,232.671011 1085.88946,224 C1082.19676,215.328989 1077.21971,207.862397 1070.95818,201.6 C1064.69664,195.337603 1057.31135,190.359875 1048.80208,186.666667 C1040.29282,182.973458 1030.90065,181.126882 1020.62531,181.126882 Z" id="Combined-Shape"></path>
        </g>
    </g>
</svg>